<?xml version="1.0" standalone="no"?>
<!DOCTYPE svg PUBLIC "-//W3C//DTD SVG 20010904//EN"
 "http://www.w3.org/TR/2001/REC-SVG-20010904/DTD/svg10.dtd">
<svg version="1.0" xmlns="http://www.w3.org/2000/svg"
 width="630.000000pt" height="630.000000pt" viewBox="0 0 630.000000 630.000000"
 preserveAspectRatio="xMidYMid meet">
<metadata>
Created by potrace 1.14, written by Peter Selinger 2001-2017
</metadata>
<g transform="translate(0.000000,630.000000) scale(0.100000,-0.100000)"
fill="#000000" stroke="none">
<path d="M4109 5078 c-3 -5 -13 -135 -24 -283 -7 -101 -17 -223 -20 -255 -2
-19 -7 -80 -10 -135 -4 -55 -8 -116 -10 -135 -2 -19 -7 -82 -11 -140 -3 -58
-8 -118 -9 -135 -1 -16 -3 -39 -4 -51 l-1 -20 -122 18 c-408 60 -936 65 -1338
13 -162 -21 -173 -23 -285 -46 -641 -131 -1109 -366 -1335 -670 -296 -397 -98
-835 518 -1147 327 -166 727 -272 1232 -328 192 -21 731 -25 920 -6 397 40
707 106 1005 215 515 187 843 464 921 777 32 129 5 284 -76 420 -72 122 -235
278 -398 380 -40 24 -72 48 -72 52 0 4 11 13 25 20 24 13 294 177 365 223 41
26 187 116 212 130 79 45 314 192 316 198 2 4 9 7 17 7 7 0 17 6 23 13 13 15
-15 30 -348 184 -41 20 -122 57 -179 85 -125 59 -175 82 -303 142 -54 25 -140
66 -192 91 -52 25 -99 45 -105 45 -6 0 -11 5 -11 10 0 6 -6 10 -14 10 -8 0
-79 31 -158 69 -78 37 -177 84 -218 103 -206 97 -257 122 -282 135 -16 7 -29
12 -29 11z"/>
<path d="M2868 4420 c-895 -43 -1704 -283 -2223 -661 -277 -202 -450 -417
-536 -669 -30 -88 -33 -106 -35 -240 -3 -161 8 -225 66 -363 89 -213 310 -456
579 -636 528 -353 1320 -574 2178 -610 1151 -48 2249 242 2864 756 382 320
536 720 417 1086 -31 99 -92 216 -158 305 -75 102 -217 252 -239 252 -9 0 -27
-9 -41 -20 l-25 -20 32 -25 c51 -41 183 -204 236 -292 26 -44 65 -127 85 -184
36 -104 36 -105 36 -269 0 -164 0 -166 -36 -268 -134 -381 -502 -696 -1101
-943 -252 -104 -654 -210 -992 -263 -345 -53 -852 -73 -1225 -46 -979 69
-1807 372 -2255 824 -531 536 -398 1196 335 1660 467 297 1143 499 1845 552
216 16 292 19 486 18 118 -1 273 -5 344 -10 201 -13 200 -13 200 16 0 32 -22
36 -310 49 -244 12 -287 12 -527 1z"/>
</g>
</svg>
